<svg width="14" height="10" viewBox="0 0 14 10" fill="none" xmlns="http://www.w3.org/2000/svg">
<path d="M12.9899 4.00006H3.41388L5.69988 1.71706C5.79292 1.62402 5.86672 1.51356 5.91708 1.392C5.96743 1.27043 5.99335 1.14014 5.99335 1.00856C5.99335 0.876981 5.96743 0.746689 5.91708 0.625125C5.86672 0.50356 5.79292 0.393104 5.69988 0.300062C5.60684 0.207021 5.49638 0.133216 5.37482 0.0828623C5.25325 0.0325085 5.12296 0.0065918 4.99138 0.0065918C4.72564 0.0065918 4.47078 0.112156 4.28288 0.300062L0.299878 4.29306C0.206902 4.38594 0.133143 4.49622 0.0828187 4.61762C0.0324944 4.73902 0.0065918 4.86915 0.0065918 5.00056C0.0065918 5.13198 0.0324944 5.2621 0.0828187 5.3835C0.133143 5.5049 0.206902 5.61519 0.299878 5.70806L4.28288 9.70006C4.37592 9.7931 4.48638 9.86691 4.60794 9.91726C4.72951 9.96762 4.8598 9.99353 4.99138 9.99353C5.12296 9.99353 5.25325 9.96762 5.37482 9.91726C5.49638 9.86691 5.60684 9.7931 5.69988 9.70006C5.79292 9.60702 5.86672 9.49656 5.91708 9.375C5.96743 9.25343 5.99335 9.12314 5.99335 8.99156C5.99335 8.85998 5.96743 8.72969 5.91708 8.60812C5.86672 8.48656 5.79292 8.3761 5.69988 8.28306L3.41388 6.00006H12.9899C13.2551 6.00006 13.5094 5.8947 13.697 5.70717C13.8845 5.51963 13.9899 5.26528 13.9899 5.00006C13.9899 4.73485 13.8845 4.48049 13.697 4.29296C13.5094 4.10542 13.2551 4.00006 12.9899 4.00006Z" fill="#505050"/>
</svg>
