<svg xmlns="http://www.w3.org/2000/svg" height="18" viewBox="0 0 18 18" width="18">
  <defs>
    <style>
      .fill {
      fill: #464646;
      }
    </style>
  </defs>
  <title>S Document 18 N</title>
  <rect id="Canvas" fill="red" opacity="0" width="18" height="18" />
  <path fill="#707070"  d="M10,5.5V1H3.5a.5.5,0,0,0-.5.5v15a.5.5,0,0,0,.5.5h11a.5.5,0,0,0,.5-.5V6H10.5A.5.5,0,0,1,10,5.5Z" />
  <path   fill="#707070"  d="M11,1h.043a.5.5,0,0,1,.3535.1465l3.457,3.457A.5.5,0,0,1,15,4.957V5H11Z" />
</svg>
