<svg width="18" height="18" viewBox="0 0 18 18" fill="none" xmlns="http://www.w3.org/2000/svg">
<path d="M16.75 3.00006H7.95C7.83524 2.43492 7.52864 1.92683 7.08213 1.56188C6.63562 1.19692 6.07668 0.997559 5.5 0.997559C4.92332 0.997559 4.36438 1.19692 3.91787 1.56188C3.47136 1.92683 3.16476 2.43492 3.05 3.00006H1.25C1.1837 3.00006 1.12011 3.0264 1.07322 3.07329C1.02634 3.12017 1 3.18376 1 3.25006V3.75006C1 3.81637 1.02634 3.87996 1.07322 3.92684C1.12011 3.97373 1.1837 4.00006 1.25 4.00006H3.05C3.16476 4.56521 3.47136 5.0733 3.91787 5.43825C4.36438 5.80321 4.92332 6.00257 5.5 6.00257C6.07668 6.00257 6.63562 5.80321 7.08213 5.43825C7.52864 5.0733 7.83524 4.56521 7.95 4.00006H16.75C16.8163 4.00006 16.8799 3.97373 16.9268 3.92684C16.9737 3.87996 17 3.81637 17 3.75006V3.25006C17 3.18376 16.9737 3.12017 16.9268 3.07329C16.8799 3.0264 16.8163 3.00006 16.75 3.00006ZM5.5 5.00006C5.20333 5.00006 4.91332 4.91209 4.66664 4.74727C4.41997 4.58245 4.22771 4.34818 4.11418 4.07409C4.00065 3.8 3.97094 3.4984 4.02882 3.20743C4.0867 2.91646 4.22956 2.64918 4.43934 2.4394C4.64912 2.22963 4.91639 2.08676 5.20736 2.02889C5.49834 1.97101 5.79994 2.00071 6.07403 2.11425C6.34811 2.22778 6.58238 2.42004 6.7472 2.66671C6.91203 2.91338 7 3.20339 7 3.50006C7 3.89789 6.84196 4.27942 6.56066 4.56073C6.27936 4.84203 5.89782 5.00006 5.5 5.00006Z" fill="#505050"/>
<path d="M16.75 13.0001H9.95C9.83524 12.4349 9.52864 11.9268 9.08213 11.5619C8.63562 11.1969 8.07668 10.9976 7.5 10.9976C6.92332 10.9976 6.36438 11.1969 5.91787 11.5619C5.47136 11.9268 5.16476 12.4349 5.05 13.0001H1.25C1.1837 13.0001 1.12011 13.0264 1.07322 13.0733C1.02634 13.1202 1 13.1838 1 13.2501V13.7501C1 13.8164 1.02634 13.88 1.07322 13.9268C1.12011 13.9737 1.1837 14.0001 1.25 14.0001H5.05C5.16476 14.5652 5.47136 15.0733 5.91787 15.4383C6.36438 15.8032 6.92332 16.0026 7.5 16.0026C8.07668 16.0026 8.63562 15.8032 9.08213 15.4383C9.52864 15.0733 9.83524 14.5652 9.95 14.0001H16.75C16.8163 14.0001 16.8799 13.9737 16.9268 13.9268C16.9737 13.88 17 13.8164 17 13.7501V13.2501C17 13.1838 16.9737 13.1202 16.9268 13.0733C16.8799 13.0264 16.8163 13.0001 16.75 13.0001ZM7.5 15.0001C7.20333 15.0001 6.91332 14.9121 6.66664 14.7473C6.41997 14.5824 6.22771 14.3482 6.11418 14.0741C6.00065 13.8 5.97094 13.4984 6.02882 13.2074C6.0867 12.9165 6.22956 12.6492 6.43934 12.4394C6.64912 12.2296 6.91639 12.0868 7.20736 12.0289C7.49834 11.971 7.79994 12.0007 8.07403 12.1142C8.34811 12.2278 8.58238 12.42 8.7472 12.6667C8.91203 12.9134 9 13.2034 9 13.5001C9 13.8979 8.84196 14.2794 8.56066 14.5607C8.27936 14.842 7.89782 15.0001 7.5 15.0001Z" fill="#505050"/>
<path d="M1 8.25006V8.75006C1 8.81637 1.02634 8.87996 1.07322 8.92684C1.12011 8.97373 1.1837 9.00006 1.25 9.00006H10.05C10.1648 9.56521 10.4714 10.0733 10.9179 10.4383C11.3644 10.8032 11.9233 11.0026 12.5 11.0026C13.0767 11.0026 13.6356 10.8032 14.0821 10.4383C14.5286 10.0733 14.8352 9.56521 14.95 9.00006H16.75C16.8163 9.00006 16.8799 8.97373 16.9268 8.92684C16.9737 8.87996 17 8.81637 17 8.75006V8.25006C17 8.18376 16.9737 8.12017 16.9268 8.07329C16.8799 8.0264 16.8163 8.00006 16.75 8.00006H14.95C14.8352 7.43492 14.5286 6.92683 14.0821 6.56188C13.6356 6.19692 13.0767 5.99756 12.5 5.99756C11.9233 5.99756 11.3644 6.19692 10.9179 6.56188C10.4714 6.92683 10.1648 7.43492 10.05 8.00006H1.25C1.1837 8.00006 1.12011 8.0264 1.07322 8.07329C1.02634 8.12017 1 8.18376 1 8.25006ZM11 8.50006C11 8.20339 11.088 7.91338 11.2528 7.66671C11.4176 7.42004 11.6519 7.22778 11.926 7.11425C12.2001 7.00071 12.5017 6.97101 12.7926 7.02889C13.0836 7.08676 13.3509 7.22963 13.5607 7.4394C13.7704 7.64918 13.9133 7.91646 13.9712 8.20743C14.0291 8.4984 13.9994 8.8 13.8858 9.07409C13.7723 9.34818 13.58 9.58245 13.3334 9.74727C13.0867 9.91209 12.7967 10.0001 12.5 10.0001C12.1022 10.0001 11.7206 9.84203 11.4393 9.56073C11.158 9.27942 11 8.89789 11 8.50006Z" fill="#505050"/>
</svg>
