<svg viewBox="0 0 36 36" xmlns="http://www.w3.org/2000/svg" fill="#c038cc" class="spectrum-Icon_368b34 spectrum-Icon--sizeM_368b34" focusable="false" aria-hidden="true" role="img">
  <path d="M4 5v26a1 1 0 0 0 1 1h26a1 1 0 0 0 1-1V5a1 1 0 0 0-1-1H5a1 1 0 0 0-1 1zm6 24.5a.5.5 0 0 1-.5.5h-3a.5.5 0 0 1-.5-.5v-3a.5.5 0 0 1 .5-.5h3a.5.5 0 0 1 .5.5zm0-6.706a.5.5 0 0 1-.5.5h-3a.5.5 0 0 1-.5-.5v-3a.5.5 0 0 1 .5-.5h3a.5.5 0 0 1 .5.5zm0-6.588a.5.5 0 0 1-.5.5h-3a.5.5 0 0 1-.5-.5v-3a.5.5 0 0 1 .5-.5h3a.5.5 0 0 1 .5.5zM10 9.5a.5.5 0 0 1-.5.5h-3a.5.5 0 0 1-.5-.5v-3a.5.5 0 0 1 .5-.5h3a.5.5 0 0 1 .5.5zM23.5 18h-11a.5.5 0 0 1-.5-.5v-1a.5.5 0 0 1 .5-.5h11a.5.5 0 0 1 .5.5v1a.5.5 0 0 1-.5.5zM30 29.5a.5.5 0 0 1-.5.5h-3a.5.5 0 0 1-.5-.5v-3a.5.5 0 0 1 .5-.5h3a.5.5 0 0 1 .5.5zm0-6.706a.5.5 0 0 1-.5.5h-3a.5.5 0 0 1-.5-.5v-3a.5.5 0 0 1 .5-.5h3a.5.5 0 0 1 .5.5zm0-6.588a.5.5 0 0 1-.5.5h-3a.5.5 0 0 1-.5-.5v-3a.5.5 0 0 1 .5-.5h3a.5.5 0 0 1 .5.5zM30 9.5a.5.5 0 0 1-.5.5h-3a.5.5 0 0 1-.5-.5v-3a.5.5 0 0 1 .5-.5h3a.5.5 0 0 1 .5.5z"></path>
</svg>
